<svg xmlns="http://www.w3.org/2000/svg" width="76.582" height="67.915" viewBox="0 0 76.582 67.915">
  <g id="Group_137" data-name="Group 137" transform="translate(-55.191 -39.697)">
    <g id="Group_1" data-name="Group 1" transform="translate(64.95 39.697)">
      <path id="Path_1" data-name="Path 1" d="M135.623,142.181l-1.638-2.843-1.8,3.1h3.6l.149-.257Z" transform="translate(-105.047 -91.589)" fill="#fff"/>
      <path id="Path_2" data-name="Path 2" d="M105.132,39.7,75.556,90.546h4.28L107.262,43.36Z" transform="translate(-75.556 -39.697)" fill="#fff"/>
      <path id="Path_3" data-name="Path 3" d="M153.431,79.92l-2.055-3.535-6.645,11.433h4.109Z" transform="translate(-111.582 -58.804)" fill="#fff"/>
      <path id="Path_4" data-name="Path 4" d="M142.149,67.232l-2.183-3.756L129.726,81.1h4.366Z" transform="translate(-103.767 -52.081)" fill="#fff"/>
      <path id="Path_5" data-name="Path 5" d="M131.834,55.486l-2.055-3.535L116.329,75.094h4.109Z" transform="translate(-96.79 -46.079)" fill="#fff"/>
      <path id="Path_6" data-name="Path 6" d="M117.981,136.16h4.182l3.147-5.415-2.082-3.614Z" transform="translate(-97.65 -85.232)" fill="#fff"/>
      <path id="Path_7" data-name="Path 7" d="M103.244,129.414h4.366l6.574-11.311-2.173-3.773Z" transform="translate(-89.975 -78.565)" fill="#fff"/>
      <path id="Path_8" data-name="Path 8" d="M89.846,123.384h4.109l9.928-17.082-2.045-3.551Z" transform="translate(-82.998 -72.535)" fill="#fff"/>
      <path id="Path_9" data-name="Path 9" d="M143.25,102.781H114.888l1.966,3.414h28.388Z" transform="translate(-96.039 -72.55)" fill="#fff"/>
      <path id="Path_10" data-name="Path 10" d="M149.943,114.33h-28.4l2.2,3.822h28.432Z" transform="translate(-99.504 -78.565)" fill="#fff"/>
      <path id="Path_11" data-name="Path 11" d="M157.314,127.049H128.866l2.1,3.648h28.475Z" transform="translate(-103.319 -85.189)" fill="#fff"/>
      <path id="Path_12" data-name="Path 12" d="M135.943,139.338l1.674,2.905.176.194h28.45l-1.809-3.1Z" transform="translate(-107.005 -91.589)" fill="#fff"/>
    </g>
    <path id="Path_13" data-name="Path 13" d="M55.191,164.924c1.836-4.954,3.76-9.872,5.671-14.795,1.395,0,2.787.005,4.181,0,1.9,4.9,3.665,9.859,5.6,14.744-1.377.123-2.758.025-4.138.067-.331-.886-.6-1.8-.989-2.66-1.729,0-3.457.015-5.183-.006-.527.822-.59,1.944-1.256,2.638-1.292.061-2.592,0-3.886.015m6.174-5.547c1.035,0,2.07.008,3.1-.015q-.7-2.335-1.541-4.628C62.349,156.262,61.878,157.828,61.365,159.376Z" transform="translate(0 -57.51)" fill="#fff"/>
    <path id="Path_14" data-name="Path 14" d="M202.4,153.69c1.168.062,2.341.046,3.513.013-.018,1-.036,2.008.021,3.012.626,0,1.253-.008,1.882-.023,0,.983,0,1.967,0,2.951q-.959.009-1.916.013c-.013,2.37.011,4.74-.008,7.111-1.179.03-2.36.02-3.541.011-.038-2.384.041-4.769-.041-7.153-.362.01-.719.023-1.079.034-.015-.981-.007-1.965-.023-2.946.38-.007.763-.016,1.146-.025A28.15,28.15,0,0,1,202.4,153.69Z" transform="translate(-76.045 -59.366)" fill="#fff"/>
    <path id="Path_15" data-name="Path 15" d="M90.647,160.006c1.877-1.143,4.219-.86,6.2-.149-.369.784-.773,1.554-1.186,2.317-.933-.326-2.088-.873-2.959-.1-.336.5.257.97.722,1.048a5.64,5.64,0,0,1,2.961,1.112,3.239,3.239,0,0,1,.6,3.182,4,4,0,0,1-3.93,2.44c-1.6.041-3.508.091-4.7-1.158.457-.778.84-1.594,1.3-2.368a4.922,4.922,0,0,0,3.164,1c.578-.095,1.079-.863.447-1.266-1.161-.609-2.712-.447-3.647-1.5A3.24,3.24,0,0,1,90.647,160.006Z" transform="translate(-17.273 -62.255)" fill="#fff"/>
    <path id="Path_16" data-name="Path 16" d="M123.429,160.392a4.794,4.794,0,0,1,6.29.121c-.011-.224-.029-.666-.036-.889,1.2-.01,2.4,0,3.6-.005-.013,3.356.005,6.71-.011,10.064-1.2,0-2.411.058-3.613-.044.015-.26.048-.778.064-1.04a3.891,3.891,0,0,1-1.9,1.23c-1.343.054-2.84.247-3.978-.642a5.663,5.663,0,0,1-.414-8.8m3.151,2.14a2.354,2.354,0,0,0-.657,3.818c1.31,1.228,3.991.355,3.852-1.592A2.29,2.29,0,0,0,126.58,162.532Z" transform="translate(-34.549 -62.276)" fill="#fff"/>
    <path id="Path_17" data-name="Path 17" d="M154.479,160.81a4.237,4.237,0,0,1,5.688-.878,4.162,4.162,0,0,1,1.341,3.213c.008,2.155-.034,4.309.036,6.464-1.2.1-2.414.046-3.621.044.054-1.734.038-3.467.038-5.2a2.956,2.956,0,0,0-.442-1.859,1.724,1.724,0,0,0-2.92.84c-.28,2.057-.046,4.15-.134,6.223-1.142-.008-2.285.048-3.428-.018l-.1-.149c-.062-3.292.021-6.59-.038-9.885,1.2-.026,2.393,0,3.587-.031C154.486,159.986,154.482,160.4,154.479,160.81Z" transform="translate(-49.844 -62.244)" fill="#fff"/>
    <path id="Path_18" data-name="Path 18" d="M177.726,160.882c2.293-2.317,6.759-2.278,8.767.4a6.6,6.6,0,0,1,.943,3.965c-2.481-.033-4.962-.01-7.44.015a2.6,2.6,0,0,0,.6,1.7,2.439,2.439,0,0,0,3.372-.416c1.125,0,2.255.036,3.379-.036a4.482,4.482,0,0,1-4.531,3.331c-1.271,0-2.638.134-3.767-.58-3.036-1.456-3.475-5.989-1.325-8.372m2.3,2.224c1.406-.067,2.869.249,4.232-.131a2.809,2.809,0,0,0-1.494-1.325A2.112,2.112,0,0,0,180.023,163.106Z" transform="translate(-63.118 -62.239)" fill="#fff"/>
    <path id="Path_19" data-name="Path 19" d="M110.663,160c1.2-.026,2.4,0,3.6-.013-.018,3.356.01,6.713-.015,10.07-1.169.011-2.34-.005-3.508.018C110.622,166.725,110.784,163.362,110.663,160Z" transform="translate(-28.889 -62.648)" fill="#fff"/>
  </g>
</svg>
