<svg xmlns="http://www.w3.org/2000/svg" width="113.293" height="100.47" viewBox="0 0 113.293 100.47">
  <g id="Group_137" data-name="Group 137" transform="translate(-55.191 -39.697)">
    <g id="Group_1" data-name="Group 1" transform="translate(69.628 39.697)">
      <path id="Path_1" data-name="Path 1" d="M137.271,143.544l-2.423-4.205-2.666,4.585H137.5l.221-.38Z" transform="translate(-92.039 -68.7)" fill="#2e3192"/>
      <path id="Path_2" data-name="Path 2" d="M119.31,39.7,75.556,114.92h6.332l40.572-69.8Z" transform="translate(-75.556 -39.697)" fill="#2e3192"/>
      <path id="Path_3" data-name="Path 3" d="M157.6,81.614l-3.039-5.229L144.732,93.3h6.079Z" transform="translate(-95.691 -50.376)" fill="#2e3192"/>
      <path id="Path_4" data-name="Path 4" d="M148.1,69.033l-3.229-5.556L129.726,89.542h6.459Z" transform="translate(-91.323 -46.618)" fill="#2e3192"/>
      <path id="Path_5" data-name="Path 5" d="M139.267,57.181l-3.039-5.229-19.9,34.236h6.079Z" transform="translate(-87.424 -43.264)" fill="#2e3192"/>
      <path id="Path_6" data-name="Path 6" d="M117.981,140.488h6.187l4.656-8.01-3.08-5.346Z" transform="translate(-87.905 -65.147)" fill="#2e3192"/>
      <path id="Path_7" data-name="Path 7" d="M103.244,136.644H109.7l9.726-16.734-3.215-5.581Z" transform="translate(-83.615 -61.421)" fill="#2e3192"/>
      <path id="Path_8" data-name="Path 8" d="M89.846,133.274h6.079L110.612,108l-3.025-5.253Z" transform="translate(-79.715 -58.051)" fill="#2e3192"/>
      <path id="Path_9" data-name="Path 9" d="M156.846,102.781H114.888l2.909,5.05h42Z" transform="translate(-87.004 -58.059)" fill="#ed008c"/>
      <path id="Path_10" data-name="Path 10" d="M163.558,114.33H121.539l3.257,5.655h42.061Z" transform="translate(-88.94 -61.421)" fill="#ed008c"/>
      <path id="Path_11" data-name="Path 11" d="M170.951,127.049H128.866l3.109,5.4H174.1Z" transform="translate(-91.073 -65.123)" fill="#ed008c"/>
      <path id="Path_12" data-name="Path 12" d="M135.943,139.338l2.476,4.3.261.288h42.088l-2.676-4.585Z" transform="translate(-93.133 -68.7)" fill="#ed008c"/>
    </g>
    <path id="Path_13" data-name="Path 13" d="M55.191,172.017c2.717-7.328,5.562-14.6,8.389-21.887,2.063,0,4.122.008,6.185,0,2.811,7.249,5.421,14.585,8.282,21.811-2.037.182-4.081.038-6.121.1-.49-1.31-.885-2.659-1.463-3.935-2.557.007-5.114.023-7.667-.009-.779,1.217-.873,2.876-1.857,3.9-1.911.09-3.834.007-5.749.022m9.133-8.206c1.531,0,3.063.011,4.59-.023q-1.031-3.454-2.279-6.847C65.779,159.2,65.084,161.521,64.324,163.81Z" transform="translate(0 -32.143)" fill="#2e3192"/>
    <path id="Path_14" data-name="Path 14" d="M202.974,153.69c1.728.091,3.464.069,5.2.019-.027,1.485-.054,2.97.03,4.456.926,0,1.853-.011,2.785-.035,0,1.455,0,2.91,0,4.365q-1.419.013-2.834.02c-.019,3.506.016,7.013-.011,10.52-1.744.045-3.491.03-5.239.016-.057-3.526.06-7.055-.06-10.582-.536.015-1.064.035-1.6.05-.023-1.452-.011-2.907-.034-4.358.562-.011,1.129-.023,1.7-.038A41.65,41.65,0,0,1,202.974,153.69Z" transform="translate(-42.503 -33.181)" fill="#2e3192"/>
    <path id="Path_15" data-name="Path 15" d="M91.744,160.376c2.777-1.691,6.242-1.273,9.171-.22-.547,1.159-1.143,2.3-1.755,3.427-1.38-.483-3.089-1.291-4.377-.155-.5.744.38,1.436,1.068,1.55,1.523.293,3.2.528,4.38,1.645a4.792,4.792,0,0,1,.889,4.707,5.91,5.91,0,0,1-5.813,3.609c-2.371.061-5.189.134-6.948-1.713.676-1.151,1.242-2.359,1.922-3.5a7.281,7.281,0,0,0,4.681,1.478c.855-.14,1.6-1.276.661-1.873-1.717-.9-4.012-.661-5.395-2.215A4.794,4.794,0,0,1,91.744,160.376Z" transform="translate(-9.654 -34.795)" fill="#2e3192"/>
    <path id="Path_16" data-name="Path 16" d="M124.339,160.927a7.093,7.093,0,0,1,9.3.179c-.016-.331-.043-.985-.054-1.315,1.771-.015,3.545,0,5.319-.008-.02,4.965.008,9.927-.016,14.889-1.782,0-3.567.086-5.345-.065.022-.384.072-1.151.1-1.539-.84.718-1.641,1.679-2.808,1.82-1.987.08-4.2.365-5.885-.95-4.29-2.822-4.6-9.8-.612-13.012M129,164.093a3.483,3.483,0,0,0-.972,5.649c1.938,1.816,5.9.525,5.7-2.355C134.1,164.89,131.162,163.139,129,164.093Z" transform="translate(-19.31 -34.807)" fill="#2e3192"/>
    <path id="Path_17" data-name="Path 17" d="M156.2,161.574a6.269,6.269,0,0,1,8.415-1.3c1.5,1.086,1.843,3.028,1.984,4.753.011,3.188-.05,6.375.053,9.563-1.781.148-3.571.069-5.357.065.079-2.565.057-5.129.057-7.693a4.374,4.374,0,0,0-.654-2.75c-1.189-1.536-4.084-.681-4.319,1.242-.414,3.043-.068,6.139-.2,9.205-1.69-.011-3.38.072-5.072-.026l-.149-.22c-.091-4.87.03-9.749-.056-14.623,1.77-.038,3.54,0,5.307-.046C156.206,160.355,156.2,160.963,156.2,161.574Z" transform="translate(-27.858 -34.789)" fill="#2e3192"/>
    <path id="Path_18" data-name="Path 18" d="M178.367,161.686c3.392-3.428,10-3.37,12.97.588a9.757,9.757,0,0,1,1.4,5.866c-3.67-.049-7.34-.015-11.007.023a3.848,3.848,0,0,0,.889,2.508,3.608,3.608,0,0,0,4.989-.615c1.664,0,3.335.054,5-.053a6.63,6.63,0,0,1-6.7,4.927c-1.88-.007-3.9.2-5.573-.859-4.491-2.154-5.14-8.86-1.96-12.385m3.4,3.289c2.079-.1,4.244.369,6.261-.194a4.156,4.156,0,0,0-2.21-1.96A3.125,3.125,0,0,0,181.766,164.976Z" transform="translate(-35.277 -34.786)" fill="#2e3192"/>
    <path id="Path_19" data-name="Path 19" d="M110.663,160.011c1.774-.038,3.549,0,5.327-.019-.027,4.965.015,9.931-.023,14.9-1.729.016-3.462-.008-5.19.026C110.6,169.953,110.842,164.977,110.663,160.011Z" transform="translate(-16.147 -35.015)" fill="#2e3192"/>
  </g>
</svg>
