<svg id="twitter-logo" xmlns="http://www.w3.org/2000/svg" width="26.361" height="18.16" viewBox="0 0 26.361 18.16">
  <path id="Twitter__x28_alt_x29_" d="M23.374,74.98a3.2,3.2,0,0,0,2.871-1.708,4.72,4.72,0,0,1-3.107.345c-.045-.215-.095-.419-.144-.6-.7-2.562-3.086-4.626-5.589-4.376.2-.082.408-.158.613-.226.275-.1,1.892-.362,1.637-.932-.215-.5-2.189.379-2.561.494.491-.185,1.3-.5,1.39-1.066a3.92,3.92,0,0,0-2.061.976,1.417,1.417,0,0,0,.4-.783c-2.006,1.281-3.177,3.865-4.126,6.371a9.83,9.83,0,0,0-2-1.605,52.041,52.041,0,0,0-6.763-2.977A3.583,3.583,0,0,0,6.188,72.2a5.519,5.519,0,0,0-1.623.195c.225,1.181.961,2.155,2.952,2.626a2.412,2.412,0,0,0-1.807.714,3.06,3.06,0,0,0,3.245,1.59c-2.023.872-.825,2.487.821,2.246A6.99,6.99,0,0,1,0,79.833c6.637,9.044,21.066,5.349,23.216-3.363a3.994,3.994,0,0,0,3.145-1.188A6.417,6.417,0,0,1,23.374,74.98Z" transform="translate(0 -66.906)" fill="#fff"/>
</svg>
