<svg id="youtube-logo" xmlns="http://www.w3.org/2000/svg" width="16.007" height="19.208" viewBox="0 0 16.007 19.208">
  <path id="YouTube" d="M21.039,14.05H19.985l0-.612a.5.5,0,0,1,.5-.495h.067a.5.5,0,0,1,.5.495Zm-3.954-1.312a.451.451,0,0,0-.486.4v2.978a.5.5,0,0,0,.974,0V13.138A.451.451,0,0,0,17.085,12.738Zm6.421-1.666v5.665a2.555,2.555,0,0,1-2.619,2.471H10.119A2.555,2.555,0,0,1,7.5,16.737V11.072A2.556,2.556,0,0,1,10.119,8.6H20.888A2.556,2.556,0,0,1,23.507,11.072Zm-12.669,6.28V11.385h1.335V10.5L8.613,10.5v.869l1.111,0v5.984Zm4-5.079H13.726V15.46a5.648,5.648,0,0,1,0,.773c-.09.247-.5.51-.656.027a6.342,6.342,0,0,1,0-.777l0-3.209H11.953l0,3.158c0,.484-.011.845,0,1.009.027.29.018.627.286.82a1.344,1.344,0,0,0,1.7-.569l0,.658h.894V12.274ZM18.4,15.923l0-2.652c0-1.011-.757-1.616-1.783-.8l0-1.972-1.112,0L15.5,17.308l.914-.013.083-.424C17.667,17.943,18.4,17.208,18.4,15.923Zm3.483-.352-.834,0c0,.033,0,.071,0,.113v.466a.456.456,0,0,1-.456.452h-.163a.456.456,0,0,1-.457-.452V14.93h1.911V14.21a11.347,11.347,0,0,0-.057-1.352c-.137-.951-1.471-1.1-2.145-.615a1.256,1.256,0,0,0-.467.629,3.539,3.539,0,0,0-.142,1.121v1.581C19.071,18.2,22.264,17.833,21.883,15.571ZM17.6,6.986a.758.758,0,0,0,.268.338.775.775,0,0,0,.455.126.708.708,0,0,0,.426-.133,1.023,1.023,0,0,0,.312-.4l-.021.437h1.241V2.079h-.977V6.185a.407.407,0,0,1-.813,0V2.079H17.474V5.637c0,.453.008.756.022.909A1.53,1.53,0,0,0,17.6,6.986Zm-3.76-2.98a4.39,4.39,0,0,1,.126-1.187,1.27,1.27,0,0,1,1.3-.944A1.539,1.539,0,0,1,16,2.041a1.23,1.23,0,0,1,.476.433,1.708,1.708,0,0,1,.23.549,4.381,4.381,0,0,1,.062.864V5.222A7.223,7.223,0,0,1,16.714,6.3a1.709,1.709,0,0,1-.245.641,1.16,1.16,0,0,1-.477.439,1.524,1.524,0,0,1-.673.141A1.87,1.87,0,0,1,14.6,7.4a.985.985,0,0,1-.458-.366,1.624,1.624,0,0,1-.233-.592,5.7,5.7,0,0,1-.069-1.04v-1.4Zm.972,2.1a.5.5,0,1,0,.986,0V3.293a.5.5,0,1,0-.986,0ZM11.38,7.52h1.17V3.473L13.935.007h-1.28L11.92,2.582,11.174,0H9.907l1.471,3.475Z" transform="translate(-7.5)" fill="#fff"/>
</svg>
